<svg width="120" height="83" viewBox="0 0 120 83" fill="none" xmlns="http://www.w3.org/2000/svg">
<path fill-rule="evenodd" clip-rule="evenodd" d="M76.6882 8.52049C77.672 7.46442 78.4965 6.35895 78.6804 5.47574C79.1951 3.00431 77.6247 0.614367 75.147 0.0983577C72.6693 -0.417651 70.2754 1.14668 69.7607 3.61811C69.5288 4.73158 70.0893 6.57539 70.7754 8.26543C70.7042 8.31483 70.6287 8.35968 70.5477 8.39902C63.2332 9.01756 58.1296 11.3732 56.4921 12.4738C55.895 12.5324 55.0653 12.4731 54.1543 12.4079C51.7762 12.238 48.844 12.0284 48.0509 13.7734C46.9488 16.1975 49.328 16.2386 51.2756 16.2722H51.2756C52.0376 16.2854 52.7336 16.2974 53.1291 16.4505C54.698 17.0583 54.3482 18.9368 53.1273 19.6916C51.9237 20.4355 50.0591 20.3256 48.4518 20.2309C47.9484 20.2012 47.4702 20.173 47.0455 20.173H32.6356C32.2887 20.173 31.8558 20.1431 31.377 20.11H31.377C29.3262 19.9681 26.434 19.7681 25.8554 21.6136C25.1026 24.0138 27.8517 23.925 29.5892 23.8689L29.5893 23.8689C29.827 23.8612 30.0457 23.8542 30.2339 23.8542H42.2422C42.3958 23.8542 42.5619 23.8502 42.7361 23.846C44.0345 23.8147 45.7804 23.7727 46.0884 25.2948C46.4749 27.205 44.2409 27.6952 42.8827 27.6954H35.0372L34.9018 27.6953C33.7363 27.6936 32.5043 27.6918 31.8123 28.8182C31.0913 29.9917 31.7257 31.4427 33.1159 31.5296C34.0074 31.5854 34.9154 31.5467 35.8245 31.508H35.8245H35.8245C37.013 31.4574 38.2031 31.4067 39.3602 31.5669C40.2109 31.6847 41.0307 32.374 40.9839 33.2972C40.9018 34.919 39.2353 35.3758 37.9192 35.3779H32.1552C31.9434 35.3779 31.7189 35.368 31.4883 35.358C30.7362 35.3251 29.9203 35.2894 29.2757 35.5826C28.0899 36.1216 27.3727 38.0417 28.6503 38.8975C29.2257 39.283 29.9998 39.2557 30.7047 39.2308L30.7049 39.2308C30.8733 39.2249 31.0377 39.2191 31.1946 39.2191H34.2367C33.0802 40.4385 32.291 42.841 34.3974 43.6768C35.6275 44.1649 37.3626 44.0474 38.9211 43.9419H38.9212H38.9213C39.5359 43.9003 40.1232 43.8606 40.6411 43.8606C40.8709 43.8606 41.1196 43.8749 41.3754 43.8896L41.3756 43.8896C41.991 43.925 42.6477 43.9627 43.1816 43.8097C43.7331 43.6516 44.1851 42.7853 44.5879 42.0134C44.803 41.6012 45.004 41.2159 45.1987 40.9798C46.6233 39.2508 48.9363 37.9704 51.2084 37.9417C53.4194 37.9137 55.4557 39.087 56.5761 40.9796C56.7144 41.2133 56.8217 41.6223 56.9361 42.0586C57.1367 42.8231 57.3592 43.6717 57.8095 43.8097C59.1695 44.2265 61.0057 44.0923 62.6922 43.9691C63.4499 43.9137 64.1773 43.8606 64.8178 43.8606H74.7447C75.2478 43.8606 75.774 43.8856 76.308 43.911C77.4514 43.9654 78.6298 44.0215 79.6908 43.8369C80.2726 43.7356 80.6813 42.9185 81.0429 42.1955C81.219 41.8434 81.3839 41.5136 81.5523 41.2997C82.7624 39.762 84.376 38.6603 86.2727 38.1752C90.1598 37.1812 93.6467 39.9512 93.958 43.8606H99.722C99.903 43.8606 100.087 43.8652 100.272 43.8698C101.127 43.8913 102.008 43.9135 102.764 43.4817C105.283 42.0424 104.569 38.6034 101.643 38.5789C103.502 23.8735 91.5066 9.33894 76.6882 8.52049ZM73.9048 6.06585C74.7374 6.23925 75.55 5.71891 75.7198 4.90365C75.8896 4.08839 75.3522 3.28692 74.5196 3.11352C73.687 2.94013 72.8744 3.46046 72.7046 4.27572C72.5348 5.09098 73.0722 5.89245 73.9048 6.06585ZM32.4761 16.2031C30.5994 15.6068 31.1622 13.1079 32.7957 12.5951C33.6091 12.3397 34.6207 12.3964 35.5639 12.4492C35.9384 12.4702 36.3021 12.4906 36.6383 12.4906C37.4485 12.4906 38.3471 12.4301 39.2762 12.3676H39.2763C41.3392 12.2289 43.5529 12.08 45.2837 12.56C47.0755 13.0568 46.4802 15.4534 45.124 16.0672C44.3209 16.4308 43.3206 16.3906 42.3948 16.3535H42.3948C42.1216 16.3425 41.855 16.3318 41.6018 16.3318C40.7829 16.3318 39.8636 16.3949 38.908 16.4605L38.9079 16.4605H38.9079C36.6939 16.6125 34.2846 16.7778 32.4761 16.2031ZM21.1227 31.3751C19.2066 30.527 20.5639 28.1279 22.0683 27.7801C23.804 27.3788 27.7685 27.194 29.4327 27.8385C31.2596 28.5459 30.5292 30.9374 28.953 31.4321C27.8136 31.7899 26.3394 31.6957 24.9762 31.6086C24.4032 31.572 23.8498 31.5366 23.3492 31.5366C23.1882 31.5366 23.0184 31.5435 22.8444 31.5504C22.2606 31.5739 21.6291 31.5993 21.1227 31.3751ZM45.011 45.301C45.3412 42.5129 47.4535 40.2093 50.2478 39.7695C53.8153 39.2079 56.3845 42.393 55.4062 45.7812C54.7015 48.2215 52.549 49.8525 50.0876 50.1939C47.2731 50.5843 44.6717 48.1654 45.011 45.301ZM81.6816 44.6608C82.0983 42.1666 84.2959 40.1643 86.753 39.7697C90.1678 39.2212 92.8521 42.0853 92.0879 45.4611C91.5158 47.9883 89.2771 49.8581 86.753 50.2146C83.4602 50.6795 81.1634 47.7632 81.6816 44.6608Z" fill="#DE3C4B" fill-opacity="0.9"/>
<path d="M9 57.436V59.47H3.762V62.692H7.776V64.69H3.762V70H1.242V57.436H9ZM13.3069 61.576C13.6309 61.048 14.0509 60.634 14.5669 60.334C15.0949 60.034 15.6949 59.884 16.3669 59.884V62.53H15.7009C14.9089 62.53 14.3089 62.716 13.9009 63.088C13.5049 63.46 13.3069 64.108 13.3069 65.032V70H10.7869V60.028H13.3069V61.576ZM27.3343 64.798C27.3343 65.158 27.3103 65.482 27.2623 65.77H19.9723C20.0323 66.49 20.2843 67.054 20.7283 67.462C21.1723 67.87 21.7183 68.074 22.3663 68.074C23.3023 68.074 23.9683 67.672 24.3643 66.868H27.0823C26.7943 67.828 26.2423 68.62 25.4263 69.244C24.6103 69.856 23.6083 70.162 22.4203 70.162C21.4603 70.162 20.5963 69.952 19.8283 69.532C19.0723 69.1 18.4783 68.494 18.0463 67.714C17.6263 66.934 17.4163 66.034 17.4163 65.014C17.4163 63.982 17.6263 63.076 18.0463 62.296C18.4663 61.516 19.0543 60.916 19.8103 60.496C20.5663 60.076 21.4363 59.866 22.4203 59.866C23.3683 59.866 24.2143 60.07 24.9583 60.478C25.7143 60.886 26.2963 61.468 26.7043 62.224C27.1243 62.968 27.3343 63.826 27.3343 64.798ZM24.7243 64.078C24.7123 63.43 24.4783 62.914 24.0223 62.53C23.5663 62.134 23.0083 61.936 22.3483 61.936C21.7243 61.936 21.1963 62.128 20.7643 62.512C20.3443 62.884 20.0863 63.406 19.9903 64.078H24.7243ZM28.5256 64.978C28.5256 63.97 28.7236 63.076 29.1196 62.296C29.5276 61.516 30.0736 60.916 30.7576 60.496C31.4536 60.076 32.2276 59.866 33.0796 59.866C33.8236 59.866 34.4716 60.016 35.0236 60.316C35.5876 60.616 36.0376 60.994 36.3736 61.45V60.028H38.9116V70H36.3736V68.542C36.0496 69.01 35.5996 69.4 35.0236 69.712C34.4596 70.012 33.8056 70.162 33.0616 70.162C32.2216 70.162 31.4536 69.946 30.7576 69.514C30.0736 69.082 29.5276 68.476 29.1196 67.696C28.7236 66.904 28.5256 65.998 28.5256 64.978ZM36.3736 65.014C36.3736 64.402 36.2536 63.88 36.0136 63.448C35.7736 63.004 35.4496 62.668 35.0416 62.44C34.6336 62.2 34.1956 62.08 33.7276 62.08C33.2596 62.08 32.8276 62.194 32.4316 62.422C32.0356 62.65 31.7116 62.986 31.4596 63.43C31.2196 63.862 31.0996 64.378 31.0996 64.978C31.0996 65.578 31.2196 66.106 31.4596 66.562C31.7116 67.006 32.0356 67.348 32.4316 67.588C32.8396 67.828 33.2716 67.948 33.7276 67.948C34.1956 67.948 34.6336 67.834 35.0416 67.606C35.4496 67.366 35.7736 67.03 36.0136 66.598C36.2536 66.154 36.3736 65.626 36.3736 65.014ZM47.2769 70L43.8929 65.752V70H41.3729V56.68H43.8929V64.258L47.2409 60.028H50.5169L46.1249 65.032L50.5529 70H47.2769ZM61.1546 64.798C61.1546 65.158 61.1306 65.482 61.0826 65.77H53.7926C53.8526 66.49 54.1046 67.054 54.5486 67.462C54.9926 67.87 55.5386 68.074 56.1866 68.074C57.1226 68.074 57.7886 67.672 58.1846 66.868H60.9026C60.6146 67.828 60.0626 68.62 59.2466 69.244C58.4306 69.856 57.4286 70.162 56.2406 70.162C55.2806 70.162 54.4166 69.952 53.6486 69.532C52.8926 69.1 52.2986 68.494 51.8666 67.714C51.4466 66.934 51.2366 66.034 51.2366 65.014C51.2366 63.982 51.4466 63.076 51.8666 62.296C52.2866 61.516 52.8746 60.916 53.6306 60.496C54.3866 60.076 55.2566 59.866 56.2406 59.866C57.1886 59.866 58.0346 60.07 58.7786 60.478C59.5346 60.886 60.1166 61.468 60.5246 62.224C60.9446 62.968 61.1546 63.826 61.1546 64.798ZM58.5446 64.078C58.5326 63.43 58.2986 62.914 57.8426 62.53C57.3866 62.134 56.8286 61.936 56.1686 61.936C55.5446 61.936 55.0166 62.128 54.5846 62.512C54.1646 62.884 53.9066 63.406 53.8106 64.078H58.5446ZM65.514 61.576C65.838 61.048 66.258 60.634 66.774 60.334C67.302 60.034 67.902 59.884 68.574 59.884V62.53H67.908C67.116 62.53 66.516 62.716 66.108 63.088C65.712 63.46 65.514 64.108 65.514 65.032V70H62.994V60.028H65.514V61.576ZM82.3184 57.436V59.47H77.0804V62.692H81.0944V64.69H77.0804V70H74.5604V57.436H82.3184ZM88.5333 70.162C87.5733 70.162 86.7093 69.952 85.9413 69.532C85.1733 69.1 84.5673 68.494 84.1233 67.714C83.6913 66.934 83.4753 66.034 83.4753 65.014C83.4753 63.994 83.6973 63.094 84.1413 62.314C84.5973 61.534 85.2153 60.934 85.9953 60.514C86.7753 60.082 87.6453 59.866 88.6053 59.866C89.5653 59.866 90.4353 60.082 91.2153 60.514C91.9953 60.934 92.6073 61.534 93.0513 62.314C93.5073 63.094 93.7353 63.994 93.7353 65.014C93.7353 66.034 93.5013 66.934 93.0333 67.714C92.5773 68.494 91.9533 69.1 91.1613 69.532C90.3813 69.952 89.5053 70.162 88.5333 70.162ZM88.5333 67.966C88.9893 67.966 89.4153 67.858 89.8113 67.642C90.2193 67.414 90.5433 67.078 90.7833 66.634C91.0233 66.19 91.1433 65.65 91.1433 65.014C91.1433 64.066 90.8913 63.34 90.3873 62.836C89.8953 62.32 89.2893 62.062 88.5693 62.062C87.8493 62.062 87.2433 62.32 86.7513 62.836C86.2713 63.34 86.0313 64.066 86.0313 65.014C86.0313 65.962 86.2653 66.694 86.7333 67.21C87.2133 67.714 87.8133 67.966 88.5333 67.966ZM100.012 70.162C99.0518 70.162 98.1878 69.952 97.4198 69.532C96.6518 69.1 96.0458 68.494 95.6018 67.714C95.1698 66.934 94.9538 66.034 94.9538 65.014C94.9538 63.994 95.1758 63.094 95.6198 62.314C96.0758 61.534 96.6938 60.934 97.4738 60.514C98.2538 60.082 99.1238 59.866 100.084 59.866C101.044 59.866 101.914 60.082 102.694 60.514C103.474 60.934 104.086 61.534 104.53 62.314C104.986 63.094 105.214 63.994 105.214 65.014C105.214 66.034 104.98 66.934 104.512 67.714C104.056 68.494 103.432 69.1 102.64 69.532C101.86 69.952 100.984 70.162 100.012 70.162ZM100.012 67.966C100.468 67.966 100.894 67.858 101.29 67.642C101.698 67.414 102.022 67.078 102.262 66.634C102.502 66.19 102.622 65.65 102.622 65.014C102.622 64.066 102.37 63.34 101.866 62.836C101.374 62.32 100.768 62.062 100.048 62.062C99.3278 62.062 98.7218 62.32 98.2298 62.836C97.7498 63.34 97.5098 64.066 97.5098 65.014C97.5098 65.962 97.7438 66.694 98.2118 67.21C98.6918 67.714 99.2918 67.966 100.012 67.966ZM106.414 64.978C106.414 63.97 106.612 63.076 107.008 62.296C107.416 61.516 107.968 60.916 108.664 60.496C109.36 60.076 110.134 59.866 110.986 59.866C111.634 59.866 112.252 60.01 112.84 60.298C113.428 60.574 113.896 60.946 114.244 61.414V56.68H116.8V70H114.244V68.524C113.932 69.016 113.494 69.412 112.93 69.712C112.366 70.012 111.712 70.162 110.968 70.162C110.128 70.162 109.36 69.946 108.664 69.514C107.968 69.082 107.416 68.476 107.008 67.696C106.612 66.904 106.414 65.998 106.414 64.978ZM114.262 65.014C114.262 64.402 114.142 63.88 113.902 63.448C113.662 63.004 113.338 62.668 112.93 62.44C112.522 62.2 112.084 62.08 111.616 62.08C111.148 62.08 110.716 62.194 110.32 62.422C109.924 62.65 109.6 62.986 109.348 63.43C109.108 63.862 108.988 64.378 108.988 64.978C108.988 65.578 109.108 66.106 109.348 66.562C109.6 67.006 109.924 67.348 110.32 67.588C110.728 67.828 111.16 67.948 111.616 67.948C112.084 67.948 112.522 67.834 112.93 67.606C113.338 67.366 113.662 67.03 113.902 66.598C114.142 66.154 114.262 65.626 114.262 65.014Z" fill="#3F3D56"/>
<path d="M10.044 80.049C9.722 80.049 9.43733 79.993 9.19 79.881C8.94733 79.769 8.756 79.6127 8.616 79.412C8.476 79.2113 8.40133 78.9873 8.392 78.74H8.91C8.93333 78.978 9.03833 79.188 9.225 79.37C9.41167 79.5473 9.68467 79.636 10.044 79.636C10.3753 79.636 10.6367 79.552 10.828 79.384C11.024 79.2113 11.122 78.9943 11.122 78.733C11.122 78.523 11.0683 78.355 10.961 78.229C10.8537 78.0983 10.7207 78.0027 10.562 77.942C10.4033 77.8767 10.184 77.8067 9.904 77.732C9.57733 77.6433 9.31833 77.557 9.127 77.473C8.93567 77.389 8.77233 77.2583 8.637 77.081C8.50167 76.9037 8.434 76.6633 8.434 76.36C8.434 76.108 8.49933 75.884 8.63 75.688C8.76067 75.4873 8.945 75.331 9.183 75.219C9.421 75.107 9.694 75.051 10.002 75.051C10.4547 75.051 10.8187 75.163 11.094 75.387C11.374 75.6063 11.535 75.891 11.577 76.241H11.045C11.0123 76.0403 10.9027 75.863 10.716 75.709C10.5293 75.5503 10.2773 75.471 9.96 75.471C9.666 75.471 9.421 75.5503 9.225 75.709C9.029 75.863 8.931 76.0753 8.931 76.346C8.931 76.5513 8.98467 76.717 9.092 76.843C9.19933 76.969 9.33233 77.0647 9.491 77.13C9.65433 77.1953 9.87367 77.2653 10.149 77.34C10.4663 77.4287 10.723 77.5173 10.919 77.606C11.115 77.69 11.2807 77.8207 11.416 77.998C11.5513 78.1753 11.619 78.4133 11.619 78.712C11.619 78.9407 11.5583 79.1577 11.437 79.363C11.3157 79.5683 11.136 79.734 10.898 79.86C10.66 79.986 10.3753 80.049 10.044 80.049ZM16.0239 77.893C16.0239 78.061 16.0192 78.1893 16.0099 78.278H12.8389C12.8529 78.5673 12.9229 78.8147 13.0489 79.02C13.1749 79.2253 13.3405 79.3817 13.5459 79.489C13.7512 79.5917 13.9752 79.643 14.2179 79.643C14.5352 79.643 14.8012 79.566 15.0159 79.412C15.2352 79.258 15.3799 79.0503 15.4499 78.789H15.9679C15.8745 79.1623 15.6739 79.468 15.3659 79.706C15.0625 79.9393 14.6799 80.056 14.2179 80.056C13.8585 80.056 13.5365 79.9767 13.2519 79.818C12.9672 79.6547 12.7432 79.426 12.5799 79.132C12.4212 78.8333 12.3419 78.4857 12.3419 78.089C12.3419 77.6923 12.4212 77.3447 12.5799 77.046C12.7385 76.7473 12.9602 76.5187 13.2449 76.36C13.5295 76.2013 13.8539 76.122 14.2179 76.122C14.5819 76.122 14.8992 76.2013 15.1699 76.36C15.4452 76.5187 15.6552 76.7333 15.7999 77.004C15.9492 77.27 16.0239 77.5663 16.0239 77.893ZM15.5269 77.879C15.5315 77.5943 15.4732 77.3517 15.3519 77.151C15.2352 76.9503 15.0742 76.7987 14.8689 76.696C14.6635 76.5933 14.4395 76.542 14.1969 76.542C13.8329 76.542 13.5225 76.6587 13.2659 76.892C13.0092 77.1253 12.8669 77.4543 12.8389 77.879H15.5269ZM17.4104 76.857C17.5177 76.619 17.681 76.4347 17.9004 76.304C18.1244 76.1733 18.3974 76.108 18.7194 76.108V76.619H18.5864C18.2317 76.619 17.947 76.7147 17.7324 76.906C17.5177 77.0973 17.4104 77.417 17.4104 77.865V80H16.9204V76.178H17.4104V76.857ZM20.8145 79.524L22.1025 76.178H22.6205L21.0875 80H20.5345L19.0015 76.178H19.5265L20.8145 79.524ZM23.5296 75.457C23.4316 75.457 23.3476 75.422 23.2776 75.352C23.2076 75.282 23.1726 75.1957 23.1726 75.093C23.1726 74.9903 23.2076 74.9063 23.2776 74.841C23.3476 74.771 23.4316 74.736 23.5296 74.736C23.6276 74.736 23.7116 74.771 23.7816 74.841C23.8516 74.9063 23.8866 74.9903 23.8866 75.093C23.8866 75.1957 23.8516 75.282 23.7816 75.352C23.7116 75.422 23.6276 75.457 23.5296 75.457ZM23.7746 76.178V80H23.2846V76.178H23.7746ZM26.5152 79.643C26.8372 79.643 27.1056 79.566 27.3202 79.412C27.5396 79.2533 27.6819 79.034 27.7472 78.754H28.2722C28.1882 79.1227 28.0062 79.4237 27.7262 79.657C27.4509 79.8903 27.1009 80.021 26.6762 80.049V80.469C26.9516 80.4597 27.1686 80.511 27.3272 80.623C27.4906 80.7397 27.5722 80.9053 27.5722 81.12C27.5722 81.33 27.4976 81.4957 27.3482 81.617C27.1989 81.743 27.0006 81.806 26.7532 81.806H26.0532V81.477H26.6552C26.8279 81.477 26.9539 81.4467 27.0332 81.386C27.1172 81.33 27.1592 81.2413 27.1592 81.12C27.1592 80.896 26.9912 80.784 26.6552 80.784H26.3332V80.049C26.0066 80.021 25.7172 79.9253 25.4652 79.762C25.2132 79.594 25.0149 79.3677 24.8702 79.083C24.7302 78.7937 24.6602 78.4623 24.6602 78.089C24.6602 77.6923 24.7396 77.347 24.8982 77.053C25.0569 76.7543 25.2762 76.5257 25.5562 76.367C25.8362 76.2037 26.1559 76.122 26.5152 76.122C26.9866 76.122 27.3739 76.2387 27.6772 76.472C27.9852 76.7053 28.1836 77.0227 28.2722 77.424H27.7472C27.6819 77.1487 27.5396 76.934 27.3202 76.78C27.1056 76.6213 26.8372 76.542 26.5152 76.542C26.2586 76.542 26.0276 76.6003 25.8222 76.717C25.6169 76.8337 25.4536 77.0087 25.3322 77.242C25.2156 77.4707 25.1572 77.753 25.1572 78.089C25.1572 78.425 25.2156 78.7097 25.3322 78.943C25.4536 79.1763 25.6169 79.3513 25.8222 79.468C26.0276 79.5847 26.2586 79.643 26.5152 79.643ZM30.8502 80.056C30.4909 80.056 30.1665 79.9767 29.8772 79.818C29.5925 79.6547 29.3662 79.426 29.1982 79.132C29.0349 78.8333 28.9532 78.4857 28.9532 78.089C28.9532 77.6923 29.0372 77.347 29.2052 77.053C29.3732 76.7543 29.6019 76.5257 29.8912 76.367C30.1805 76.2037 30.5049 76.122 30.8642 76.122C31.2235 76.122 31.5479 76.2037 31.8372 76.367C32.1312 76.5257 32.3599 76.7543 32.5232 77.053C32.6912 77.347 32.7752 77.6923 32.7752 78.089C32.7752 78.481 32.6912 78.8263 32.5232 79.125C32.3552 79.4237 32.1242 79.6547 31.8302 79.818C31.5362 79.9767 31.2095 80.056 30.8502 80.056ZM30.8502 79.629C31.1022 79.629 31.3355 79.573 31.5502 79.461C31.7649 79.3443 31.9375 79.1717 32.0682 78.943C32.2035 78.7097 32.2712 78.425 32.2712 78.089C32.2712 77.753 32.2059 77.4707 32.0752 77.242C31.9445 77.0087 31.7719 76.836 31.5572 76.724C31.3425 76.6073 31.1092 76.549 30.8572 76.549C30.6052 76.549 30.3719 76.6073 30.1572 76.724C29.9425 76.836 29.7699 77.0087 29.6392 77.242C29.5132 77.4707 29.4502 77.753 29.4502 78.089C29.4502 78.425 29.5132 78.7097 29.6392 78.943C29.7699 79.1717 29.9402 79.3443 30.1502 79.461C30.3649 79.573 30.5982 79.629 30.8502 79.629ZM35.3653 78.082C35.3653 77.69 35.4446 77.347 35.6033 77.053C35.762 76.7543 35.979 76.5257 36.2543 76.367C36.5343 76.2037 36.8493 76.122 37.1993 76.122C37.5353 76.122 37.8386 76.2037 38.1093 76.367C38.38 76.5303 38.5783 76.7427 38.7043 77.004V74.82H39.1943V80H38.7043V79.146C38.5876 79.412 38.3963 79.6313 38.1303 79.804C37.8643 79.972 37.5516 80.056 37.1923 80.056C36.8423 80.056 36.5273 79.9743 36.2473 79.811C35.972 79.6477 35.755 79.4167 35.5963 79.118C35.4423 78.8193 35.3653 78.474 35.3653 78.082ZM38.7043 78.089C38.7043 77.781 38.6413 77.5103 38.5153 77.277C38.3893 77.0437 38.2166 76.864 37.9973 76.738C37.7826 76.612 37.5446 76.549 37.2833 76.549C37.0126 76.549 36.77 76.6097 36.5553 76.731C36.3406 76.8523 36.1703 77.0297 36.0443 77.263C35.923 77.4917 35.8623 77.7647 35.8623 78.082C35.8623 78.3947 35.923 78.67 36.0443 78.908C36.1703 79.1413 36.3406 79.321 36.5553 79.447C36.77 79.5683 37.0126 79.629 37.2833 79.629C37.5446 79.629 37.7826 79.566 37.9973 79.44C38.2166 79.314 38.3893 79.1343 38.5153 78.901C38.6413 78.6677 38.7043 78.397 38.7043 78.089ZM43.7709 77.893C43.7709 78.061 43.7663 78.1893 43.7569 78.278H40.5859C40.5999 78.5673 40.6699 78.8147 40.7959 79.02C40.9219 79.2253 41.0876 79.3817 41.2929 79.489C41.4983 79.5917 41.7223 79.643 41.9649 79.643C42.2823 79.643 42.5483 79.566 42.7629 79.412C42.9823 79.258 43.1269 79.0503 43.1969 78.789H43.7149C43.6216 79.1623 43.4209 79.468 43.1129 79.706C42.8096 79.9393 42.4269 80.056 41.9649 80.056C41.6056 80.056 41.2836 79.9767 40.9989 79.818C40.7143 79.6547 40.4903 79.426 40.3269 79.132C40.1683 78.8333 40.0889 78.4857 40.0889 78.089C40.0889 77.6923 40.1683 77.3447 40.3269 77.046C40.4856 76.7473 40.7073 76.5187 40.9919 76.36C41.2766 76.2013 41.6009 76.122 41.9649 76.122C42.3289 76.122 42.6463 76.2013 42.9169 76.36C43.1923 76.5187 43.4023 76.7333 43.5469 77.004C43.6963 77.27 43.7709 77.5663 43.7709 77.893ZM43.2739 77.879C43.2786 77.5943 43.2203 77.3517 43.0989 77.151C42.9823 76.9503 42.8213 76.7987 42.6159 76.696C42.4106 76.5933 42.1866 76.542 41.9439 76.542C41.5799 76.542 41.2696 76.6587 41.0129 76.892C40.7563 77.1253 40.6139 77.4543 40.5859 77.879H43.2739ZM50.0463 77.893C50.0463 78.061 50.0417 78.1893 50.0323 78.278H46.8613C46.8753 78.5673 46.9453 78.8147 47.0713 79.02C47.1973 79.2253 47.363 79.3817 47.5683 79.489C47.7737 79.5917 47.9977 79.643 48.2403 79.643C48.5577 79.643 48.8237 79.566 49.0383 79.412C49.2577 79.258 49.4023 79.0503 49.4723 78.789H49.9903C49.897 79.1623 49.6963 79.468 49.3883 79.706C49.085 79.9393 48.7023 80.056 48.2403 80.056C47.881 80.056 47.559 79.9767 47.2743 79.818C46.9897 79.6547 46.7657 79.426 46.6023 79.132C46.4437 78.8333 46.3643 78.4857 46.3643 78.089C46.3643 77.6923 46.4437 77.3447 46.6023 77.046C46.761 76.7473 46.9827 76.5187 47.2673 76.36C47.552 76.2013 47.8763 76.122 48.2403 76.122C48.6043 76.122 48.9217 76.2013 49.1923 76.36C49.4677 76.5187 49.6777 76.7333 49.8223 77.004C49.9717 77.27 50.0463 77.5663 50.0463 77.893ZM49.5493 77.879C49.554 77.5943 49.4957 77.3517 49.3743 77.151C49.2577 76.9503 49.0967 76.7987 48.8913 76.696C48.686 76.5933 48.462 76.542 48.2193 76.542C47.8553 76.542 47.545 76.6587 47.2883 76.892C47.0317 77.1253 46.8893 77.4543 46.8613 77.879H49.5493ZM52.7348 76.108C53.1921 76.108 53.5655 76.2503 53.8548 76.535C54.1441 76.815 54.2888 77.2233 54.2888 77.76V80H53.8058V77.816C53.8058 77.4007 53.7008 77.0833 53.4908 76.864C53.2855 76.6447 53.0031 76.535 52.6438 76.535C52.2751 76.535 51.9811 76.6517 51.7618 76.885C51.5425 77.1183 51.4328 77.4613 51.4328 77.914V80H50.9428V76.178H51.4328V76.829C51.5541 76.5957 51.7291 76.4183 51.9578 76.297C52.1865 76.171 52.4455 76.108 52.7348 76.108ZM56.0095 76.591V78.964C56.0095 79.1973 56.0538 79.3583 56.1425 79.447C56.2312 79.5357 56.3875 79.58 56.6115 79.58H57.0595V80H56.5345C56.1892 80 55.9325 79.9207 55.7645 79.762C55.5965 79.5987 55.5125 79.3327 55.5125 78.964V76.591H54.9805V76.178H55.5125V75.219H56.0095V76.178H57.0595V76.591H56.0095ZM58.3576 76.857C58.465 76.619 58.6283 76.4347 58.8476 76.304C59.0716 76.1733 59.3446 76.108 59.6666 76.108V76.619H59.5336C59.179 76.619 58.8943 76.7147 58.6796 76.906C58.465 77.0973 58.3576 77.417 58.3576 77.865V80H57.8676V76.178H58.3576V76.857ZM63.8618 77.893C63.8618 78.061 63.8571 78.1893 63.8478 78.278H60.6768C60.6908 78.5673 60.7608 78.8147 60.8868 79.02C61.0128 79.2253 61.1784 79.3817 61.3838 79.489C61.5891 79.5917 61.8131 79.643 62.0558 79.643C62.3731 79.643 62.6391 79.566 62.8538 79.412C63.0731 79.258 63.2178 79.0503 63.2878 78.789H63.8058C63.7124 79.1623 63.5118 79.468 63.2038 79.706C62.9004 79.9393 62.5178 80.056 62.0558 80.056C61.6964 80.056 61.3744 79.9767 61.0898 79.818C60.8051 79.6547 60.5811 79.426 60.4178 79.132C60.2591 78.8333 60.1798 78.4857 60.1798 78.089C60.1798 77.6923 60.2591 77.3447 60.4178 77.046C60.5764 76.7473 60.7981 76.5187 61.0828 76.36C61.3674 76.2013 61.6918 76.122 62.0558 76.122C62.4198 76.122 62.7371 76.2013 63.0078 76.36C63.2831 76.5187 63.4931 76.7333 63.6378 77.004C63.7871 77.27 63.8618 77.5663 63.8618 77.893ZM63.3648 77.879C63.3694 77.5943 63.3111 77.3517 63.1898 77.151C63.0731 76.9503 62.9121 76.7987 62.7068 76.696C62.5014 76.5933 62.2774 76.542 62.0348 76.542C61.6708 76.542 61.3604 76.6587 61.1038 76.892C60.8471 77.1253 60.7048 77.4543 60.6768 77.879H63.3648ZM66.3612 76.122C66.7206 76.122 67.0332 76.206 67.2992 76.374C67.5652 76.542 67.7566 76.7543 67.8732 77.011V76.178H68.3632V80.098C68.3632 80.448 68.2862 80.7583 68.1322 81.029C67.9829 81.2997 67.7729 81.5073 67.5022 81.652C67.2316 81.8013 66.9236 81.876 66.5782 81.876C66.0882 81.876 65.6799 81.7593 65.3532 81.526C65.0312 81.2927 64.8306 80.9753 64.7512 80.574H65.2342C65.3182 80.84 65.4769 81.0523 65.7102 81.211C65.9482 81.3697 66.2376 81.449 66.5782 81.449C66.8256 81.449 67.0472 81.3953 67.2432 81.288C67.4392 81.1853 67.5932 81.0313 67.7052 80.826C67.8172 80.6207 67.8732 80.378 67.8732 80.098V79.153C67.7519 79.4143 67.5582 79.6313 67.2922 79.804C67.0309 79.972 66.7206 80.056 66.3612 80.056C66.0112 80.056 65.6962 79.9743 65.4162 79.811C65.1409 79.6477 64.9239 79.4167 64.7652 79.118C64.6112 78.8193 64.5342 78.474 64.5342 78.082C64.5342 77.69 64.6112 77.347 64.7652 77.053C64.9239 76.7543 65.1409 76.5257 65.4162 76.367C65.6962 76.2037 66.0112 76.122 66.3612 76.122ZM67.8732 78.089C67.8732 77.781 67.8102 77.5103 67.6842 77.277C67.5582 77.0437 67.3856 76.864 67.1662 76.738C66.9516 76.612 66.7136 76.549 66.4522 76.549C66.1816 76.549 65.9389 76.6097 65.7242 76.731C65.5096 76.8523 65.3392 77.0297 65.2132 77.263C65.0919 77.4917 65.0312 77.7647 65.0312 78.082C65.0312 78.3947 65.0919 78.67 65.2132 78.908C65.3392 79.1413 65.5096 79.321 65.7242 79.447C65.9389 79.5683 66.1816 79.629 66.4522 79.629C66.7136 79.629 66.9516 79.566 67.1662 79.44C67.3856 79.314 67.5582 79.1343 67.6842 78.901C67.8102 78.6677 67.8732 78.397 67.8732 78.089ZM69.2579 78.082C69.2579 77.69 69.3349 77.347 69.4889 77.053C69.6475 76.7543 69.8645 76.5257 70.1399 76.367C70.4199 76.2037 70.7349 76.122 71.0849 76.122C71.4489 76.122 71.7615 76.206 72.0229 76.374C72.2889 76.542 72.4802 76.7567 72.5969 77.018V76.178H73.0869V80H72.5969V79.153C72.4755 79.4143 72.2819 79.6313 72.0159 79.804C71.7545 79.972 71.4419 80.056 71.0779 80.056C70.7325 80.056 70.4199 79.9743 70.1399 79.811C69.8645 79.6477 69.6475 79.4167 69.4889 79.118C69.3349 78.8193 69.2579 78.474 69.2579 78.082ZM72.5969 78.089C72.5969 77.781 72.5339 77.5103 72.4079 77.277C72.2819 77.0437 72.1092 76.864 71.8899 76.738C71.6752 76.612 71.4372 76.549 71.1759 76.549C70.9052 76.549 70.6625 76.6097 70.4479 76.731C70.2332 76.8523 70.0629 77.0297 69.9369 77.263C69.8155 77.4917 69.7549 77.7647 69.7549 78.082C69.7549 78.3947 69.8155 78.67 69.9369 78.908C70.0629 79.1413 70.2332 79.321 70.4479 79.447C70.6625 79.5683 70.9052 79.629 71.1759 79.629C71.4372 79.629 71.6752 79.566 71.8899 79.44C72.1092 79.314 72.2819 79.1343 72.4079 78.901C72.5339 78.6677 72.5969 78.397 72.5969 78.089ZM75.9024 78.082C75.9024 77.69 75.9817 77.347 76.1404 77.053C76.2991 76.7543 76.5161 76.5257 76.7914 76.367C77.0714 76.2037 77.3864 76.122 77.7364 76.122C78.0724 76.122 78.3757 76.2037 78.6464 76.367C78.9171 76.5303 79.1154 76.7427 79.2414 77.004V74.82H79.7314V80H79.2414V79.146C79.1247 79.412 78.9334 79.6313 78.6674 79.804C78.4014 79.972 78.0887 80.056 77.7294 80.056C77.3794 80.056 77.0644 79.9743 76.7844 79.811C76.5091 79.6477 76.2921 79.4167 76.1334 79.118C75.9794 78.8193 75.9024 78.474 75.9024 78.082ZM79.2414 78.089C79.2414 77.781 79.1784 77.5103 79.0524 77.277C78.9264 77.0437 78.7537 76.864 78.5344 76.738C78.3197 76.612 78.0817 76.549 77.8204 76.549C77.5497 76.549 77.3071 76.6097 77.0924 76.731C76.8777 76.8523 76.7074 77.0297 76.5814 77.263C76.4601 77.4917 76.3994 77.7647 76.3994 78.082C76.3994 78.3947 76.4601 78.67 76.5814 78.908C76.7074 79.1413 76.8777 79.321 77.0924 79.447C77.3071 79.5683 77.5497 79.629 77.8204 79.629C78.0817 79.629 78.3197 79.566 78.5344 79.44C78.7537 79.314 78.9264 79.1343 79.0524 78.901C79.1784 78.6677 79.2414 78.397 79.2414 78.089ZM84.308 77.893C84.308 78.061 84.3034 78.1893 84.294 78.278H81.123C81.137 78.5673 81.207 78.8147 81.333 79.02C81.459 79.2253 81.6247 79.3817 81.83 79.489C82.0354 79.5917 82.2594 79.643 82.502 79.643C82.8194 79.643 83.0854 79.566 83.3 79.412C83.5194 79.258 83.664 79.0503 83.734 78.789H84.252C84.1587 79.1623 83.958 79.468 83.65 79.706C83.3467 79.9393 82.964 80.056 82.502 80.056C82.1427 80.056 81.8207 79.9767 81.536 79.818C81.2514 79.6547 81.0274 79.426 80.864 79.132C80.7054 78.8333 80.626 78.4857 80.626 78.089C80.626 77.6923 80.7054 77.3447 80.864 77.046C81.0227 76.7473 81.2444 76.5187 81.529 76.36C81.8137 76.2013 82.138 76.122 82.502 76.122C82.866 76.122 83.1834 76.2013 83.454 76.36C83.7294 76.5187 83.9394 76.7333 84.084 77.004C84.2334 77.27 84.308 77.5663 84.308 77.893ZM83.811 77.879C83.8157 77.5943 83.7574 77.3517 83.636 77.151C83.5194 76.9503 83.3584 76.7987 83.153 76.696C82.9477 76.5933 82.7237 76.542 82.481 76.542C82.117 76.542 81.8067 76.6587 81.55 76.892C81.2934 77.1253 81.151 77.4543 81.123 77.879H83.811ZM86.9014 78.089C86.9014 77.6923 86.9808 77.347 87.1394 77.053C87.2981 76.7543 87.5174 76.5257 87.7974 76.367C88.0774 76.2037 88.3971 76.122 88.7564 76.122C89.2278 76.122 89.6151 76.2387 89.9184 76.472C90.2264 76.7053 90.4248 77.0227 90.5134 77.424H89.9884C89.9231 77.1487 89.7808 76.934 89.5614 76.78C89.3468 76.6213 89.0784 76.542 88.7564 76.542C88.4998 76.542 88.2688 76.6003 88.0634 76.717C87.8581 76.8337 87.6948 77.0087 87.5734 77.242C87.4568 77.4707 87.3984 77.753 87.3984 78.089C87.3984 78.425 87.4568 78.7097 87.5734 78.943C87.6948 79.1763 87.8581 79.3513 88.0634 79.468C88.2688 79.5847 88.4998 79.643 88.7564 79.643C89.0784 79.643 89.3468 79.566 89.5614 79.412C89.7808 79.2533 89.9231 79.034 89.9884 78.754H90.5134C90.4248 79.146 90.2264 79.461 89.9184 79.699C89.6104 79.937 89.2231 80.056 88.7564 80.056C88.3971 80.056 88.0774 79.9767 87.7974 79.818C87.5174 79.6547 87.2981 79.426 87.1394 79.132C86.9808 78.8333 86.9014 78.4857 86.9014 78.089ZM93.0914 80.056C92.7321 80.056 92.4077 79.9767 92.1184 79.818C91.8337 79.6547 91.6074 79.426 91.4394 79.132C91.2761 78.8333 91.1944 78.4857 91.1944 78.089C91.1944 77.6923 91.2784 77.347 91.4464 77.053C91.6144 76.7543 91.8431 76.5257 92.1324 76.367C92.4217 76.2037 92.7461 76.122 93.1054 76.122C93.4647 76.122 93.7891 76.2037 94.0784 76.367C94.3724 76.5257 94.6011 76.7543 94.7644 77.053C94.9324 77.347 95.0164 77.6923 95.0164 78.089C95.0164 78.481 94.9324 78.8263 94.7644 79.125C94.5964 79.4237 94.3654 79.6547 94.0714 79.818C93.7774 79.9767 93.4507 80.056 93.0914 80.056ZM93.0914 79.629C93.3434 79.629 93.5767 79.573 93.7914 79.461C94.0061 79.3443 94.1787 79.1717 94.3094 78.943C94.4447 78.7097 94.5124 78.425 94.5124 78.089C94.5124 77.753 94.4471 77.4707 94.3164 77.242C94.1857 77.0087 94.0131 76.836 93.7984 76.724C93.5837 76.6073 93.3504 76.549 93.0984 76.549C92.8464 76.549 92.6131 76.6073 92.3984 76.724C92.1837 76.836 92.0111 77.0087 91.8804 77.242C91.7544 77.4707 91.6914 77.753 91.6914 78.089C91.6914 78.425 91.7544 78.7097 91.8804 78.943C92.0111 79.1717 92.1814 79.3443 92.3914 79.461C92.6061 79.573 92.8394 79.629 93.0914 79.629ZM100.46 76.108C100.908 76.108 101.272 76.2503 101.552 76.535C101.836 76.815 101.979 77.2233 101.979 77.76V80H101.496V77.816C101.496 77.4007 101.395 77.0833 101.195 76.864C100.994 76.6447 100.721 76.535 100.376 76.535C100.016 76.535 99.7293 76.654 99.5146 76.892C99.2999 77.13 99.1926 77.4753 99.1926 77.928V80H98.7096V77.816C98.7096 77.4007 98.6093 77.0833 98.4086 76.864C98.2079 76.6447 97.9326 76.535 97.5826 76.535C97.2233 76.535 96.9363 76.654 96.7216 76.892C96.5069 77.13 96.3996 77.4753 96.3996 77.928V80H95.9096V76.178H96.3996V76.836C96.5209 76.598 96.6936 76.4183 96.9176 76.297C97.1416 76.171 97.3913 76.108 97.6666 76.108C97.9979 76.108 98.2873 76.1873 98.5346 76.346C98.7866 76.5047 98.9686 76.738 99.0806 77.046C99.1833 76.7427 99.3583 76.5117 99.6056 76.353C99.8576 76.1897 100.142 76.108 100.46 76.108ZM103.312 75.457C103.214 75.457 103.13 75.422 103.06 75.352C102.99 75.282 102.955 75.1957 102.955 75.093C102.955 74.9903 102.99 74.9063 103.06 74.841C103.13 74.771 103.214 74.736 103.312 74.736C103.41 74.736 103.494 74.771 103.564 74.841C103.634 74.9063 103.669 74.9903 103.669 75.093C103.669 75.1957 103.634 75.282 103.564 75.352C103.494 75.422 103.41 75.457 103.312 75.457ZM103.557 76.178V80H103.067V76.178H103.557ZM104.442 78.082C104.442 77.69 104.522 77.347 104.68 77.053C104.839 76.7543 105.056 76.5257 105.331 76.367C105.611 76.2037 105.926 76.122 106.276 76.122C106.612 76.122 106.916 76.2037 107.186 76.367C107.457 76.5303 107.655 76.7427 107.781 77.004V74.82H108.271V80H107.781V79.146C107.665 79.412 107.473 79.6313 107.207 79.804C106.941 79.972 106.629 80.056 106.269 80.056C105.919 80.056 105.604 79.9743 105.324 79.811C105.049 79.6477 104.832 79.4167 104.673 79.118C104.519 78.8193 104.442 78.474 104.442 78.082ZM107.781 78.089C107.781 77.781 107.718 77.5103 107.592 77.277C107.466 77.0437 107.294 76.864 107.074 76.738C106.86 76.612 106.622 76.549 106.36 76.549C106.09 76.549 105.847 76.6097 105.632 76.731C105.418 76.8523 105.247 77.0297 105.121 77.263C105 77.4917 104.939 77.7647 104.939 78.082C104.939 78.3947 105 78.67 105.121 78.908C105.247 79.1413 105.418 79.321 105.632 79.447C105.847 79.5683 106.09 79.629 106.36 79.629C106.622 79.629 106.86 79.566 107.074 79.44C107.294 79.314 107.466 79.1343 107.592 78.901C107.718 78.6677 107.781 78.397 107.781 78.089ZM109.166 78.082C109.166 77.69 109.243 77.347 109.397 77.053C109.556 76.7543 109.773 76.5257 110.048 76.367C110.328 76.2037 110.643 76.122 110.993 76.122C111.357 76.122 111.67 76.206 111.931 76.374C112.197 76.542 112.388 76.7567 112.505 77.018V76.178H112.995V80H112.505V79.153C112.384 79.4143 112.19 79.6313 111.924 79.804C111.663 79.972 111.35 80.056 110.986 80.056C110.641 80.056 110.328 79.9743 110.048 79.811C109.773 79.6477 109.556 79.4167 109.397 79.118C109.243 78.8193 109.166 78.474 109.166 78.082ZM112.505 78.089C112.505 77.781 112.442 77.5103 112.316 77.277C112.19 77.0437 112.017 76.864 111.798 76.738C111.583 76.612 111.345 76.549 111.084 76.549C110.813 76.549 110.571 76.6097 110.356 76.731C110.141 76.8523 109.971 77.0297 109.845 77.263C109.724 77.4917 109.663 77.7647 109.663 78.082C109.663 78.3947 109.724 78.67 109.845 78.908C109.971 79.1413 110.141 79.321 110.356 79.447C110.571 79.5683 110.813 79.629 111.084 79.629C111.345 79.629 111.583 79.566 111.798 79.44C112.017 79.314 112.19 79.1343 112.316 78.901C112.442 78.6677 112.505 78.397 112.505 78.089ZM114.198 80.035C114.095 80.035 114.009 80 113.939 79.93C113.873 79.86 113.841 79.7737 113.841 79.671C113.841 79.5683 113.873 79.4843 113.939 79.419C114.009 79.349 114.095 79.314 114.198 79.314C114.296 79.314 114.377 79.349 114.443 79.419C114.513 79.4843 114.548 79.5683 114.548 79.671C114.548 79.7737 114.513 79.86 114.443 79.93C114.377 80 114.296 80.035 114.198 80.035ZM115.469 80.035C115.367 80.035 115.28 80 115.21 79.93C115.145 79.86 115.112 79.7737 115.112 79.671C115.112 79.5683 115.145 79.4843 115.21 79.419C115.28 79.349 115.367 79.314 115.469 79.314C115.567 79.314 115.649 79.349 115.714 79.419C115.784 79.4843 115.819 79.5683 115.819 79.671C115.819 79.7737 115.784 79.86 115.714 79.93C115.649 80 115.567 80.035 115.469 80.035ZM116.741 80.035C116.638 80.035 116.552 80 116.482 79.93C116.416 79.86 116.384 79.7737 116.384 79.671C116.384 79.5683 116.416 79.4843 116.482 79.419C116.552 79.349 116.638 79.314 116.741 79.314C116.839 79.314 116.92 79.349 116.986 79.419C117.056 79.4843 117.091 79.5683 117.091 79.671C117.091 79.7737 117.056 79.86 116.986 79.93C116.92 80 116.839 80.035 116.741 80.035Z" fill="#3F3D56" fill-opacity="0.7"/>
</svg>
