<svg width="85" height="51" viewBox="0 0 85 51" fill="none" xmlns="http://www.w3.org/2000/svg">
<path fillRule="evenodd" clip-rule="evenodd" d="M57.2742 8.54198C58.2579 7.4859 59.0824 6.38043 59.2664 5.49722C59.7811 3.0258 58.2107 0.635851 55.733 0.119842C53.2552 -0.396167 50.8613 1.16817 50.3466 3.63959C50.1147 4.75307 50.6753 6.59688 51.3613 8.28691C51.2901 8.33631 51.2146 8.38117 51.1336 8.4205C43.8191 9.03905 38.7155 11.3947 37.078 12.4952C36.481 12.5538 35.6513 12.4945 34.7403 12.4294C32.3621 12.2595 29.4299 12.0499 28.6368 13.7949C27.5348 16.219 29.9139 16.26 31.8615 16.2937H31.8615C32.6236 16.3068 33.3195 16.3189 33.715 16.472C35.284 17.0797 34.9341 18.9583 33.7133 19.7131C32.5096 20.457 30.645 20.3471 29.0377 20.2523C28.5343 20.2227 28.0562 20.1945 27.6315 20.1945H13.2215C12.8746 20.1945 12.4417 20.1646 11.9629 20.1314H11.9629C9.91218 19.9896 7.01998 19.7896 6.4413 21.6351C5.68849 24.0353 8.43761 23.9465 10.1751 23.8904L10.1753 23.8904C10.4129 23.8827 10.6316 23.8757 10.8198 23.8757H22.8282C22.9817 23.8757 23.1478 23.8717 23.3219 23.8675L23.3221 23.8675C24.6204 23.8362 26.3663 23.7942 26.6743 25.3163C27.0608 27.2265 24.8268 27.7167 23.4686 27.7169H15.6232L15.4878 27.7168C14.3222 27.715 13.0903 27.7132 12.3982 28.8396C11.6772 30.0131 12.3116 31.4642 13.7018 31.5511C14.5933 31.6068 15.5013 31.5682 16.4104 31.5295H16.4104H16.4104C17.5989 31.4789 18.789 31.4282 19.9462 31.5884C20.7968 31.7062 21.6166 32.3955 21.5698 33.3187C21.4877 34.9405 19.8213 35.3973 18.5052 35.3993H12.7412C12.5294 35.3993 12.3048 35.3895 12.0742 35.3794C11.3221 35.3466 10.5063 35.3109 9.86159 35.604C8.67581 36.1431 7.95867 38.0632 9.23619 38.919C9.81166 39.3045 10.5857 39.2772 11.2907 39.2523L11.2908 39.2523C11.4592 39.2464 11.6237 39.2406 11.7805 39.2406H14.8226C13.6661 40.46 12.877 42.8625 14.9834 43.6983C16.2134 44.1863 17.9485 44.0689 19.507 43.9634H19.5071H19.5072C20.1219 43.9218 20.7091 43.882 21.227 43.882C21.4568 43.882 21.7055 43.8963 21.9614 43.911L21.9615 43.9111C22.5769 43.9464 23.2337 43.9842 23.7675 43.8311C24.319 43.6731 24.7711 42.8068 25.1739 42.0349C25.3889 41.6227 25.59 41.2374 25.7846 41.0013C27.2093 39.2722 29.5222 37.9918 31.7944 37.9632C34.0053 37.9352 36.0416 39.1085 37.1621 41.0011C37.3004 41.2348 37.4076 41.6437 37.5221 42.0801C37.7226 42.8446 37.9452 43.6932 38.3954 43.8311C39.7554 44.2479 41.5916 44.1138 43.2782 43.9906C44.0358 43.9352 44.7633 43.882 45.4038 43.882H55.3306C55.8336 43.882 56.3598 43.9071 56.8937 43.9325H56.8938H56.8939C58.0373 43.9869 59.2158 44.043 60.2768 43.8583C60.8585 43.7571 61.2672 42.94 61.6288 42.217C61.8049 41.8649 61.9699 41.5351 62.1382 41.3212C63.3483 39.7835 64.9619 38.6818 66.8586 38.1967C70.7458 37.2026 74.2327 39.9726 74.5439 43.882H80.3079C80.4889 43.882 80.6726 43.8867 80.8575 43.8913C81.713 43.9128 82.594 43.935 83.3499 43.5032C85.8694 42.0639 85.1553 38.6248 82.2292 38.6004C84.0884 23.895 72.0925 9.36043 57.2742 8.54198ZM54.4907 6.08733C55.3233 6.26073 56.1359 5.7404 56.3057 4.92514C56.4755 4.10988 55.9382 3.30841 55.1056 3.13501C54.273 2.96161 53.4604 3.48194 53.2906 4.2972C53.1208 5.11247 53.6581 5.91393 54.4907 6.08733ZM13.062 16.2246C11.1854 15.6282 11.7482 13.1294 13.3816 12.6166C14.195 12.3612 15.2067 12.4179 16.1499 12.4707L16.1499 12.4707C16.5244 12.4917 16.8881 12.512 17.2243 12.512C18.0344 12.512 18.933 12.4516 19.8622 12.3891C21.9252 12.2504 24.1388 12.1015 25.8696 12.5815C27.6614 13.0783 27.0661 15.4749 25.71 16.0887C24.9069 16.4523 23.9065 16.4121 22.9807 16.3749H22.9807C22.7076 16.364 22.4409 16.3533 22.1877 16.3533C21.3688 16.3533 20.4496 16.4164 19.4939 16.482L19.4938 16.482H19.4938C17.2798 16.6339 14.8705 16.7993 13.062 16.2246ZM1.70859 31.3966C-0.207457 30.5485 1.1498 28.1493 2.6542 27.8016C4.38996 27.4003 8.35446 27.2155 10.0187 27.86C11.8455 28.5674 11.1151 30.9589 9.53896 31.4536C8.39955 31.8114 6.92531 31.7172 5.56217 31.6301C4.98913 31.5935 4.43573 31.5581 3.93509 31.5581C3.77412 31.5581 3.60435 31.5649 3.43036 31.5719C2.84651 31.5954 2.21507 31.6208 1.70859 31.3966ZM25.5969 45.3225C25.9271 42.5344 28.0394 40.2308 30.8337 39.791C34.4013 39.2294 36.9704 42.4145 35.9921 45.8027C35.2875 48.243 33.135 49.874 30.6736 50.2154C27.859 50.6058 25.2577 48.1869 25.5969 45.3225ZM62.2676 44.6823C62.6842 42.1881 64.8819 40.1858 67.3389 39.7911C70.7538 39.2426 73.438 42.1068 72.6738 45.4826C72.1017 48.0098 69.8631 49.8796 67.3389 50.2361C64.0461 50.701 61.7493 47.7847 62.2676 44.6823Z" fill="#E14F5C"/>
</svg>
