<svg width="25" height="25" viewBox="0 0 25 25" fill="none" xmlns="http://www.w3.org/2000/svg">
<path opacity="0.5" d="M12.9745 0.159851C14.0761 0.159851 15.1386 0.300476 16.162 0.581726C17.1854 0.862976 18.1425 1.26532 19.0331 1.78876C19.9237 2.31219 20.7323 2.93719 21.4589 3.66376C22.1854 4.39032 22.8104 5.20282 23.3339 6.10126C23.8573 6.99969 24.2597 7.95673 24.5409 8.97235C24.8222 9.98798 24.9667 11.0505 24.9745 12.1599C24.9745 13.2614 24.8339 14.3239 24.5526 15.3474C24.2714 16.3708 23.869 17.3278 23.3456 18.2184C22.8222 19.1091 22.1972 19.9177 21.4706 20.6442C20.744 21.3708 19.9315 21.9958 19.0331 22.5192C18.1347 23.0427 17.1776 23.445 16.162 23.7263C15.1464 24.0075 14.0839 24.152 12.9745 24.1599C11.8729 24.1599 10.8104 24.0192 9.78699 23.738C8.76356 23.4567 7.80652 23.0544 6.9159 22.5309C6.02527 22.0075 5.21668 21.3825 4.49012 20.6559C3.76355 19.9294 3.13855 19.1169 2.61511 18.2184C2.09168 17.32 1.68933 16.3669 1.40808 15.3591C1.12683 14.3513 0.9823 13.2849 0.974487 12.1599C0.974487 11.0583 1.11511 9.99579 1.39636 8.97235C1.67761 7.94891 2.07996 6.99188 2.60339 6.10126C3.12683 5.21063 3.75183 4.40204 4.4784 3.67548C5.20496 2.94891 6.01746 2.32391 6.9159 1.80048C7.81434 1.27704 8.76746 0.874695 9.77528 0.593445C10.7831 0.312195 11.8495 0.167664 12.9745 0.159851ZM22.455 7.65985C22.1581 7.02704 21.7987 6.43329 21.3768 5.8786C20.955 5.32391 20.4862 4.81219 19.9706 4.34344C19.455 3.87469 18.8964 3.46454 18.2948 3.11298C17.6933 2.76141 17.0643 2.46844 16.4081 2.23407C16.6893 2.62469 16.9432 3.03876 17.1698 3.47626C17.3964 3.91376 17.5956 4.36298 17.7675 4.82391C17.9393 5.28485 18.0917 5.75751 18.2245 6.24188C18.3573 6.72626 18.4667 7.19891 18.5526 7.65985H22.455ZM23.4745 12.1599C23.4745 11.1208 23.33 10.1208 23.0409 9.15985H18.787C18.8495 9.65985 18.8964 10.1559 18.9276 10.6481C18.9589 11.1403 18.9745 11.6442 18.9745 12.1599C18.9745 12.6677 18.9589 13.1677 18.9276 13.6599C18.8964 14.152 18.8495 14.652 18.787 15.1599H23.0409C23.33 14.1989 23.4745 13.1989 23.4745 12.1599ZM12.9745 22.6599C13.3573 22.6599 13.7128 22.5544 14.0409 22.3434C14.369 22.1325 14.6776 21.8552 14.9667 21.5114C15.2557 21.1677 15.5057 20.7809 15.7167 20.3513C15.9276 19.9216 16.1268 19.4802 16.3143 19.027C16.5018 18.5739 16.6464 18.1442 16.7479 17.738C16.8495 17.3317 16.9393 16.9724 17.0175 16.6599H8.93152C8.99403 16.9645 9.08387 17.3239 9.20106 17.738C9.31824 18.152 9.46278 18.5817 9.63465 19.027C9.80653 19.4724 10.0018 19.9099 10.2206 20.3395C10.4393 20.7692 10.6932 21.1599 10.9823 21.5114C11.2714 21.863 11.5761 22.1403 11.8964 22.3434C12.2167 22.5466 12.5761 22.652 12.9745 22.6599ZM17.2753 15.1599C17.3378 14.6599 17.3847 14.1638 17.4159 13.6716C17.4472 13.1794 17.4667 12.6755 17.4745 12.1599C17.4745 11.652 17.4589 11.152 17.4276 10.6599C17.3964 10.1677 17.3456 9.66766 17.2753 9.15985H8.67371C8.61121 9.65985 8.56434 10.1559 8.53309 10.6481C8.50184 11.1403 8.48231 11.6442 8.47449 12.1599C8.47449 12.6677 8.49012 13.1677 8.52137 13.6599C8.55262 14.152 8.6034 14.652 8.67371 15.1599H17.2753ZM2.47449 12.1599C2.47449 13.1989 2.61902 14.1989 2.90808 15.1599H7.16199C7.09949 14.6599 7.05262 14.1638 7.02137 13.6716C6.99012 13.1794 6.97449 12.6755 6.97449 12.1599C6.97449 11.652 6.99012 11.152 7.02137 10.6599C7.05262 10.1677 7.09949 9.66766 7.16199 9.15985H2.90808C2.61902 10.1208 2.47449 11.1208 2.47449 12.1599ZM12.9745 1.65985C12.5917 1.65985 12.2362 1.76532 11.9081 1.97626C11.58 2.18719 11.2714 2.46454 10.9823 2.80829C10.6932 3.15204 10.4432 3.53876 10.2323 3.96844C10.0214 4.39813 9.82215 4.83954 9.63465 5.29266C9.44715 5.74579 9.30262 6.17548 9.20106 6.58173C9.09949 6.98798 9.00965 7.34735 8.93152 7.65985H17.0175C16.955 7.35516 16.8651 6.99579 16.7479 6.58173C16.6307 6.16766 16.4862 5.73798 16.3143 5.29266C16.1425 4.84735 15.9472 4.40985 15.7284 3.98016C15.5097 3.55048 15.2557 3.15985 14.9667 2.80829C14.6776 2.45673 14.3729 2.17938 14.0526 1.97626C13.7323 1.77313 13.3729 1.66766 12.9745 1.65985ZM9.5409 2.23407C8.88465 2.46063 8.25574 2.7536 7.65418 3.11298C7.05262 3.47235 6.49402 3.88251 5.9784 4.34344C5.46277 4.80438 4.99402 5.31219 4.57215 5.86688C4.15027 6.42157 3.7909 7.01923 3.49402 7.65985H7.39637C7.49012 7.1911 7.59949 6.71844 7.72449 6.24188C7.84949 5.76532 7.99793 5.29657 8.16981 4.83563C8.34168 4.37469 8.54481 3.92157 8.77918 3.47626C9.01356 3.03094 9.26746 2.61688 9.5409 2.23407ZM3.49402 16.6599C3.7909 17.2927 4.15027 17.8864 4.57215 18.4411C4.99402 18.9958 5.46277 19.5075 5.9784 19.9763C6.49402 20.445 7.05262 20.8552 7.65418 21.2067C8.25574 21.5583 8.88465 21.8513 9.5409 22.0856C9.25965 21.695 9.00574 21.2809 8.77918 20.8434C8.55262 20.4059 8.3534 19.9567 8.18152 19.4958C8.00965 19.0349 7.85731 18.5622 7.72449 18.0778C7.59168 17.5934 7.48231 17.1208 7.39637 16.6599H3.49402ZM16.4081 22.0856C17.0643 21.8591 17.6933 21.5661 18.2948 21.2067C18.8964 20.8474 19.455 20.4372 19.9706 19.9763C20.4862 19.5153 20.955 19.0075 21.3768 18.4528C21.7987 17.8981 22.1581 17.3005 22.455 16.6599H18.5526C18.4589 17.1286 18.3495 17.6013 18.2245 18.0778C18.0995 18.5544 17.9511 19.0231 17.7792 19.4841C17.6073 19.945 17.4042 20.3981 17.1698 20.8434C16.9354 21.2888 16.6815 21.7028 16.4081 22.0856Z" fill="#1A2838"/>
</svg>
